# xmcd
#
# Track frame offsets:
# 150
# 11763
# 24360
# 38072
# 51183
# 70765
# 82319
# 94899
# 105086
# 117398
#
# Disc length: 1941 seconds
#
#
# Revision: 0
# Processed by: cddbd v1.4PL0 Copyright (c) Steve Scherf et al.
# Submitted via: FreeRIP 2.30 
#
DISCID=7907930a
DTITLE=Ray Charles - Ray Charles Sings the Blues
DYEAR=1996
DGENRE=Blues
TTITLE0=She's on the ball
TTITLE1=Don't put all your dreams in one basket
TTITLE2=This love of mine
TTITLE3=Baby won't you please come home
TTITLE4=Talkin' 'bout you
TTITLE5=You be my baby
TTITLE6=Leave my woman alone
TTITLE7=I'm movin' on
TTITLE8=Heartbreaker
TTITLE9=I got a woman
EXTD=
EXTT0=
EXTT1=
EXTT2=
EXTT3=
EXTT4=
EXTT5=
EXTT6=
EXTT7=
EXTT8=
EXTT9=
PLAYORDER=
